<?xml version="1.0" standalone="no"?>
<!DOCTYPE svg PUBLIC "-//W3C//DTD SVG 20010904//EN"
 "http://www.w3.org/TR/2001/REC-SVG-20010904/DTD/svg10.dtd">
<svg version="1.0" xmlns="http://www.w3.org/2000/svg"
 width="600.000000pt" height="600.000000pt" viewBox="0 0 600.000000 600.000000"
 preserveAspectRatio="xMidYMid meet">
<metadata>
Created by potrace 1.11, written by Peter Selinger 2001-2013
</metadata>
<g transform="translate(0.000000,600.000000) scale(0.100000,-0.100000)"
fill="#000000" stroke="none">
<path d="M515 5985 c-84 -18 -140 -42 -215 -90 -142 -92 -237 -224 -280 -389
-18 -68 -19 -162 -19 -2496 0 -1635 3 -2443 10 -2480 43 -228 214 -420 444
-501 l70 -24 2443 -3 c2719 -2 2516 -8 2667 67 137 68 227 158 296 296 72 146
67 -51 67 2635 0 2018 -2 2436 -13 2488 -29 131 -118 277 -225 366 -62 51
-191 114 -270 130 -94 21 -4883 21 -4975 1z"/>
</g>
</svg>
